<svg width="200" height="70" viewBox="0 0 200 70" fill="none" xmlns="http://www.w3.org/2000/svg">
<path d="M21.5494 70C15.9691 70 11.2199 68.73 7.30187 66.1899C3.38379 63.6498 0.949837 59.9578 0 55.1139H7.56901C9.1125 60.903 13.8617 63.7975 21.8166 63.7975C25.4972 63.7975 28.4357 63.1772 30.6322 61.9367C32.8287 60.6371 33.927 58.7468 33.927 56.2658C33.927 52.1899 31.1665 50.0042 25.6456 49.7089L15.7614 49C11.4277 48.7046 7.95488 47.5527 5.34283 45.5443C2.73078 43.4768 1.42475 40.5527 1.42475 36.7722C1.42475 32.4599 3.11665 29.1519 6.50045 26.8481C9.9436 24.5443 14.3366 23.3924 19.6794 23.3924C24.9035 23.3924 29.3559 24.5148 33.0365 26.7595C36.7765 29.0042 39.2401 32.4599 40.4274 37.1266H32.8584C30.9587 32.1055 26.5657 29.5949 19.6794 29.5949C16.355 29.5949 13.6836 30.1857 11.6652 31.3671C9.64678 32.4895 8.63758 34.2025 8.63758 36.5063C8.63758 40.2869 11.3684 42.384 16.8299 42.7975L26.6251 43.4177C31.2556 43.7131 34.8175 44.9241 37.3108 47.0506C39.8635 49.1181 41.1398 52.0422 41.1398 55.8228C41.1398 60.3122 39.3292 63.7975 35.7079 66.2785C32.0867 68.7595 27.3672 70 21.5494 70Z" fill="#0f172a"/>
<path d="M87.6524 53.1646C86.4057 58.2447 83.7936 62.3207 79.8162 65.3924C75.8388 68.4641 71.0599 70 65.4796 70C58.7714 70 53.2208 67.8143 48.8278 63.443C44.4941 59.0127 42.3273 53.4304 42.3273 46.6962C42.3273 40.0211 44.5238 34.4684 48.9168 30.038C53.3098 25.6076 58.8307 23.3924 65.4796 23.3924C71.0599 23.3924 75.8388 24.9578 79.8162 28.0886C83.853 31.1603 86.4947 35.2658 87.7414 40.4051H80.0833C78.9554 37.3333 77.0854 34.8819 74.4734 33.0506C71.9207 31.2194 68.9228 30.3038 65.4796 30.3038C60.8492 30.3038 57.0498 31.8692 54.0816 35C51.1133 38.0717 49.6292 41.9705 49.6292 46.6962C49.6292 51.481 51.1133 55.4388 54.0816 58.5696C57.0498 61.6414 60.8492 63.1772 65.4796 63.1772C68.9228 63.1772 71.9207 62.2911 74.4734 60.519C77.0854 58.6878 78.9554 56.2363 80.0833 53.1646H87.6524Z" fill="#0f172a"/>
<path d="M110.749 70C104.159 70 98.6682 67.8143 94.2752 63.443C89.8822 59.0127 87.6857 53.4304 87.6857 46.6962C87.6857 40.0211 89.9119 34.4684 94.3643 30.038C98.876 25.6076 104.545 23.3924 111.372 23.3924C118.14 23.3924 123.72 25.5781 128.113 29.9494C132.566 34.3207 134.792 39.8143 134.792 46.4304V69.1139H128.024V60.6076C126.243 63.443 123.75 65.7173 120.544 67.4304C117.398 69.1435 114.133 70 110.749 70ZM122.859 58.481C125.946 55.3502 127.49 51.4219 127.49 46.6962C127.49 41.9705 125.946 38.0717 122.859 35C119.832 31.8692 115.973 30.3038 111.283 30.3038C106.593 30.3038 102.705 31.8692 99.6181 35C96.5311 38.0717 94.9876 41.9705 94.9876 46.6962C94.9876 51.4219 96.5311 55.3502 99.6181 58.481C102.705 61.6118 106.593 63.1772 111.283 63.1772C115.973 63.1772 119.832 61.6118 122.859 58.481Z" fill="#0f172a"/>
<path d="M141.917 0H149.041V69.1139H141.917V0Z" fill="#0f172a"/>
<path d="M199.466 55.9114C197.803 60.519 194.984 64.0338 191.006 66.4557C187.088 68.8186 182.576 70 177.471 70C170.585 70 164.945 67.8439 160.552 63.5316C156.218 59.1603 154.052 53.5485 154.052 46.6962C154.052 39.903 156.278 34.3207 160.73 29.9494C165.242 25.5781 170.911 23.3924 177.738 23.3924C184.209 23.3924 189.522 25.3713 193.678 29.3291C197.893 33.2869 200 38.3376 200 44.481C200 46.076 199.852 47.5527 199.555 48.9114H164.559C162.66 48.9114 161.71 49.7089 161.71 51.3038C161.71 54.2574 163.224 57.0633 166.251 59.7215C169.338 62.3207 173.137 63.6203 177.649 63.6203C180.795 63.6203 183.675 62.9705 186.287 61.6709C188.958 60.3713 190.947 58.4515 192.253 55.9114H199.466ZM177.827 29.6835C173.316 29.6835 169.576 30.8945 166.607 33.3165C163.639 35.7384 161.917 38.9873 161.443 43.0633H190.739C192.104 43.0633 192.787 42.443 192.787 41.2025C192.787 38.3671 191.362 35.7384 188.513 33.3165C185.723 30.8945 182.161 29.6835 177.827 29.6835Z" fill="#0f172a"/>
</svg>
